<svg xmlns="http://www.w3.org/2000/svg" version="1.1" xlink="http://www.w3.org/1999/xlink" xmlns:svgjs="http://svgjs.com/svgjs" width="100%" height="100%" preserveAspectRatio="xMidYMid meet" viewBox="-0.0000059291469369782135 1.0948280504408103e-7 294.2411193847656 147" overflow="visible"><defs id="SvgjsDefs65275"></defs><g id="SvgjsG65276" transform="scale(0.6368744115669897)" opacity="1"><g id="SvgjsG65277" class="UPDKkW_0l" transform="translate(178.7074710505307, -5.392796965733217) scale(1.0497950098760411)" light-content="false" non-strokable="false" fill="#1c4f9c"><path d="M75.293 73.921l.004-49.42h-8.302V5.137l-39.7 16.961c-1.749.906-2.59 1.979-2.59 2.982l-.001 46.503c0 9.225 5.628 16.183 14.325 16.183H59.71v7.096l5.018-5.778 4.788 5.778v-7.096h5.781l-.004-13.845zM30.813 28.53l16.693-7.156v2.666l-16.693 7.156V28.53zm0 5.628l16.693-7.156v2.665l-16.693 7.156v-2.665zm8.645 50.981c-5.87 0-10.645-4.775-10.645-10.646a10.62 10.62 0 0 1 6.55-9.826c1.082-.452 29.591-12.969 29.842-13.076l.002 2.9S37.486 66.668 36.388 67.126a7.962 7.962 0 0 0-4.91 7.367c0 4.399 3.58 7.979 7.979 7.979H59.71v2.667H39.458zm-4.247-8H59.71v2.664H39.865a5.402 5.402 0 0 1-4.654-2.664zm37.419 8h-3.114v-2.667h3.114v2.667zm0-5.336h-3.114v-2.664h3.114v2.664zm0-5.377l-38.169.002-.001-.029c0-.961.263-1.856.702-2.638H72.63v2.665zm0-5.321H38.524l26.989-11.852c.903-.389 1.482-1.247 1.482-2.197V27.161h5.635v41.944z"></path></g><g id="SvgjsG65278" class="text" transform="translate(234.25356319719577, 155.3660884911846) scale(1)" light-content="false" fill="#363636"><path d="M-146.75 -17.97L-127.56 -50.12L-141.31 -50.12L-153.2 -30.22L-165.08 -50.12L-180.05 -50.12L-160.93 -18.19L-160.93 0L-146.75 0Z M-86.39 -9.74L-82.45 0L-67.7 0L-89.9 -50.12L-103.86 -50.12L-125.99 0L-111.52 0L-107.59 -9.74ZM-90.54 -20.19L-103.43 -20.19L-96.99 -36.23Z M-20.87 -9.74L-16.93 0L-2.18 0L-24.38 -50.12L-38.34 -50.12L-60.47 0L-46.01 0L-42.07 -9.74ZM-25.03 -20.19L-37.91 -20.19L-31.47 -36.23Z M14.79 -0.5C18.61 0.5 22.54 1 26.6 1C31.37 1 35.43 0.27 38.77 -1.18C42.12 -2.64 44.62 -4.58 46.29 -7.02C47.96 -9.45 48.8 -12.17 48.8 -15.18C48.8 -18.66 47.88 -21.42 46.04 -23.45C44.2 -25.48 42.03 -26.96 39.53 -27.89C37.02 -28.82 33.86 -29.69 30.04 -30.5C26.65 -31.22 24.19 -31.91 22.66 -32.58C21.14 -33.25 20.37 -34.25 20.37 -35.59C20.37 -36.92 21.02 -38.01 22.3 -38.85C23.59 -39.68 25.65 -40.1 28.46 -40.1C32.95 -40.1 37.58 -38.81 42.35 -36.23L46.72 -46.76C44.29 -48.19 41.47 -49.28 38.27 -50.02C35.07 -50.76 31.83 -51.13 28.53 -51.13C23.71 -51.13 19.64 -50.41 16.33 -48.98C13.01 -47.55 10.51 -45.6 8.84 -43.14C7.17 -40.68 6.34 -37.93 6.34 -34.87C6.34 -31.39 7.24 -28.62 9.06 -26.57C10.87 -24.51 13.04 -23.02 15.57 -22.09C18.1 -21.16 21.25 -20.29 25.03 -19.48C28.46 -18.71 30.96 -17.98 32.51 -17.29C34.06 -16.6 34.84 -15.54 34.84 -14.11C34.84 -11.39 32.11 -10.02 26.67 -10.02C23.81 -10.02 20.9 -10.48 17.94 -11.39C14.98 -12.29 12.38 -13.49 10.13 -14.97L5.48 -4.51C7.86 -2.84 10.97 -1.5 14.79 -0.5Z M110.16 -50.12L95.99 -50.12L95.99 -31.29L76.65 -31.29L76.65 -50.12L62.47 -50.12L62.47 0L76.65 0L76.65 -19.55L95.99 -19.55L95.99 0L110.16 0Z M133.11 -5.08C137.24 -1.03 143.03 1 150.48 1C157.92 1 163.71 -1.03 167.84 -5.08C171.97 -9.14 174.03 -14.89 174.03 -22.34L174.03 -50.12L160.07 -50.12L160.07 -22.77C160.07 -14.75 156.92 -10.74 150.62 -10.74C144.27 -10.74 141.1 -14.75 141.1 -22.77L141.1 -50.12L126.92 -50.12L126.92 -22.34C126.92 -14.89 128.98 -9.14 133.11 -5.08Z"></path></g><g id="SvgjsG65279" class="text" transform="translate(283.4881404356095, 200.24530264712786) scale(1)" light-content="false" fill="#1c4f9c"><path d="M-175.57 -20.05L-175.57 0L-167.12 0C-165 0 -163.12 -0.42 -161.48 -1.26C-159.84 -2.1 -158.56 -3.28 -157.65 -4.8C-156.75 -6.32 -156.29 -8.06 -156.29 -10.02C-156.29 -11.99 -156.75 -13.73 -157.65 -15.25C-158.56 -16.77 -159.84 -17.95 -161.48 -18.79C-163.12 -19.63 -165 -20.05 -167.12 -20.05ZM-167.29 -2.49L-172.71 -2.49L-172.71 -17.56L-167.29 -17.56C-165.67 -17.56 -164.24 -17.24 -163.01 -16.61C-161.78 -15.98 -160.83 -15.1 -160.16 -13.96C-159.49 -12.83 -159.16 -11.51 -159.16 -10.02C-159.16 -8.54 -159.49 -7.22 -160.16 -6.09C-160.83 -4.95 -161.78 -4.07 -163.01 -3.44C-164.24 -2.81 -165.67 -2.49 -167.29 -2.49Z M-144.38 -0.83C-143.18 -0.16 -141.82 0.17 -140.31 0.17C-138.81 0.17 -137.45 -0.16 -136.26 -0.83C-135.07 -1.5 -134.13 -2.42 -133.45 -3.59C-132.78 -4.77 -132.44 -6.1 -132.44 -7.59C-132.44 -9.08 -132.78 -10.41 -133.45 -11.59C-134.13 -12.76 -135.07 -13.68 -136.26 -14.34C-137.45 -14.99 -138.81 -15.32 -140.31 -15.32C-141.82 -15.32 -143.18 -14.99 -144.38 -14.34C-145.58 -13.68 -146.52 -12.76 -147.2 -11.59C-147.88 -10.41 -148.22 -9.08 -148.22 -7.59C-148.22 -6.1 -147.88 -4.77 -147.2 -3.59C-146.52 -2.42 -145.58 -1.5 -144.38 -0.83ZM-137.69 -2.91C-138.47 -2.46 -139.34 -2.23 -140.31 -2.23C-141.29 -2.23 -142.16 -2.46 -142.93 -2.91C-143.71 -3.36 -144.32 -3.99 -144.77 -4.8C-145.22 -5.61 -145.44 -6.54 -145.44 -7.59C-145.44 -8.64 -145.22 -9.57 -144.77 -10.38C-144.32 -11.19 -143.71 -11.82 -142.93 -12.26C-142.16 -12.7 -141.29 -12.92 -140.31 -12.92C-139.34 -12.92 -138.47 -12.7 -137.69 -12.26C-136.92 -11.82 -136.31 -11.19 -135.87 -10.38C-135.44 -9.57 -135.22 -8.64 -135.22 -7.59C-135.22 -6.54 -135.44 -5.61 -135.87 -4.8C-136.31 -3.99 -136.92 -3.36 -137.69 -2.91Z M-120.65 -0.83C-119.44 -0.16 -118.06 0.17 -116.52 0.17C-115.14 0.17 -113.91 -0.11 -112.83 -0.67C-111.76 -1.24 -110.92 -2.04 -110.33 -3.09L-112.42 -4.41C-112.9 -3.69 -113.49 -3.14 -114.2 -2.78C-114.9 -2.42 -115.68 -2.23 -116.54 -2.23C-117.54 -2.23 -118.43 -2.45 -119.22 -2.89C-120.01 -3.33 -120.63 -3.96 -121.08 -4.77C-121.53 -5.58 -121.76 -6.52 -121.76 -7.59C-121.76 -8.64 -121.53 -9.57 -121.08 -10.38C-120.63 -11.19 -120.01 -11.82 -119.22 -12.26C-118.43 -12.7 -117.54 -12.92 -116.54 -12.92C-115.68 -12.92 -114.9 -12.74 -114.2 -12.37C-113.49 -12.01 -112.9 -11.47 -112.42 -10.74L-110.33 -12.09C-110.92 -13.14 -111.76 -13.94 -112.83 -14.49C-113.91 -15.05 -115.14 -15.32 -116.52 -15.32C-118.06 -15.32 -119.44 -14.99 -120.65 -14.34C-121.87 -13.68 -122.82 -12.76 -123.5 -11.59C-124.19 -10.41 -124.53 -9.08 -124.53 -7.59C-124.53 -6.1 -124.19 -4.77 -123.5 -3.59C-122.82 -2.42 -121.87 -1.5 -120.65 -0.83Z M-92.54 -0.89L-93.4 -2.86C-94 -2.39 -94.71 -2.15 -95.55 -2.15C-96.32 -2.15 -96.9 -2.37 -97.31 -2.81C-97.72 -3.25 -97.93 -3.88 -97.93 -4.7L-97.93 -12.92L-93.58 -12.92L-93.58 -15.18L-97.93 -15.18L-97.93 -18.5L-100.68 -18.5L-100.68 -15.18L-103.26 -15.18L-103.26 -12.92L-100.68 -12.92L-100.68 -4.58C-100.68 -3.06 -100.26 -1.88 -99.42 -1.06C-98.58 -0.24 -97.39 0.17 -95.87 0.17C-95.24 0.17 -94.63 0.08 -94.03 -0.1C-93.44 -0.28 -92.95 -0.54 -92.54 -0.89Z M-81.81 -0.83C-80.6 -0.16 -79.25 0.17 -77.74 0.17C-76.23 0.17 -74.88 -0.16 -73.69 -0.83C-72.49 -1.5 -71.56 -2.42 -70.88 -3.59C-70.2 -4.77 -69.86 -6.1 -69.86 -7.59C-69.86 -9.08 -70.2 -10.41 -70.88 -11.59C-71.56 -12.76 -72.49 -13.68 -73.69 -14.34C-74.88 -14.99 -76.23 -15.32 -77.74 -15.32C-79.25 -15.32 -80.6 -14.99 -81.81 -14.34C-83.01 -13.68 -83.95 -12.76 -84.63 -11.59C-85.31 -10.41 -85.64 -9.08 -85.64 -7.59C-85.64 -6.1 -85.31 -4.77 -84.63 -3.59C-83.95 -2.42 -83.01 -1.5 -81.81 -0.83ZM-75.12 -2.91C-75.89 -2.46 -76.77 -2.23 -77.74 -2.23C-78.71 -2.23 -79.59 -2.46 -80.36 -2.91C-81.13 -3.36 -81.74 -3.99 -82.19 -4.8C-82.64 -5.61 -82.87 -6.54 -82.87 -7.59C-82.87 -8.64 -82.64 -9.57 -82.19 -10.38C-81.74 -11.19 -81.13 -11.82 -80.36 -12.26C-79.59 -12.7 -78.71 -12.92 -77.74 -12.92C-76.77 -12.92 -75.89 -12.7 -75.12 -12.26C-74.35 -11.82 -73.74 -11.19 -73.3 -10.38C-72.86 -9.57 -72.64 -8.64 -72.64 -7.59C-72.64 -6.54 -72.86 -5.61 -73.3 -4.8C-73.74 -3.99 -74.35 -3.36 -75.12 -2.91Z M-55.8 -14.64C-56.74 -14.18 -57.44 -13.51 -57.92 -12.63L-57.92 -15.18L-60.56 -15.18L-60.56 0L-57.81 0L-57.81 -7.56C-57.81 -9.2 -57.38 -10.47 -56.53 -11.36C-55.68 -12.24 -54.51 -12.69 -53.02 -12.69C-52.76 -12.69 -52.55 -12.68 -52.39 -12.66L-52.39 -15.32C-53.73 -15.32 -54.87 -15.09 -55.8 -14.64Z M-42.63 -0.33C-41.48 0 -40.29 0.17 -39.05 0.17C-37.03 0.17 -35.43 -0.23 -34.25 -1.05C-33.08 -1.86 -32.49 -2.95 -32.49 -4.32C-32.49 -5.36 -32.76 -6.16 -33.29 -6.73C-33.83 -7.3 -34.47 -7.71 -35.23 -7.95C-35.98 -8.19 -36.97 -8.41 -38.19 -8.62C-39.11 -8.79 -39.82 -8.95 -40.32 -9.08C-40.83 -9.21 -41.25 -9.42 -41.6 -9.71C-41.94 -10 -42.11 -10.39 -42.11 -10.88C-42.11 -11.51 -41.81 -12.02 -41.2 -12.4C-40.59 -12.78 -39.7 -12.97 -38.53 -12.97C-36.85 -12.97 -35.39 -12.57 -34.15 -11.77L-32.98 -13.95C-33.63 -14.37 -34.46 -14.7 -35.47 -14.95C-36.48 -15.2 -37.49 -15.32 -38.51 -15.32C-40.43 -15.32 -41.97 -14.91 -43.12 -14.08C-44.26 -13.25 -44.83 -12.14 -44.83 -10.77C-44.83 -9.7 -44.56 -8.87 -44 -8.28C-43.45 -7.69 -42.79 -7.27 -42.01 -7.02C-41.24 -6.77 -40.24 -6.55 -39.02 -6.36C-38.12 -6.21 -37.43 -6.07 -36.94 -5.94C-36.46 -5.82 -36.05 -5.62 -35.73 -5.36C-35.4 -5.09 -35.24 -4.73 -35.24 -4.27C-35.24 -2.89 -36.44 -2.21 -38.85 -2.21C-39.82 -2.21 -40.79 -2.35 -41.74 -2.64C-42.7 -2.92 -43.51 -3.3 -44.18 -3.78L-45.32 -1.6C-44.67 -1.09 -43.78 -0.66 -42.63 -0.33Z M7.29 -20.05L4.42 -20.05L4.42 -11.43L-7.09 -11.43L-7.09 -20.05L-9.95 -20.05L-9.95 0L-7.09 0L-7.09 -8.94L4.42 -8.94L4.42 0L7.29 0Z M28.75 -13.78C27.64 -14.81 26.03 -15.32 23.93 -15.32C22.7 -15.32 21.55 -15.16 20.46 -14.82C19.37 -14.49 18.44 -14.01 17.65 -13.38L18.8 -11.31C19.39 -11.81 20.12 -12.21 20.98 -12.5C21.84 -12.8 22.71 -12.95 23.61 -12.95C24.95 -12.95 25.96 -12.63 26.65 -12C27.33 -11.37 27.68 -10.46 27.68 -9.28L27.68 -8.74L23.33 -8.74C21.21 -8.74 19.66 -8.33 18.69 -7.52C17.71 -6.71 17.22 -5.63 17.22 -4.3C17.22 -2.96 17.74 -1.88 18.76 -1.06C19.78 -0.24 21.14 0.17 22.84 0.17C24 0.17 25.01 -0.01 25.86 -0.39C26.71 -0.76 27.36 -1.3 27.82 -2L27.82 0L30.43 0L30.43 -9.17C30.43 -11.21 29.87 -12.75 28.75 -13.78ZM26.02 -2.65C25.25 -2.18 24.35 -1.95 23.3 -1.95C22.25 -1.95 21.43 -2.17 20.83 -2.61C20.24 -3.05 19.95 -3.65 19.95 -4.41C19.95 -5.98 21.11 -6.76 23.44 -6.76L27.68 -6.76L27.68 -4.64C27.33 -3.78 26.78 -3.12 26.02 -2.65Z M53.73 -13.65C52.59 -14.76 51.06 -15.32 49.13 -15.32C47.93 -15.32 46.85 -15.11 45.91 -14.69C44.96 -14.27 44.21 -13.67 43.66 -12.89L43.66 -15.18L41.02 -15.18L41.02 0L43.77 0L43.77 -7.82C43.77 -9.44 44.2 -10.69 45.06 -11.56C45.92 -12.43 47.1 -12.86 48.58 -12.86C49.9 -12.86 50.91 -12.49 51.62 -11.74C52.33 -11 52.68 -9.89 52.68 -8.42L52.68 0L55.43 0L55.43 -8.74C55.43 -10.89 54.86 -12.53 53.73 -13.65Z M80.43 -21.25L77.68 -21.25L77.68 -12.89C77.07 -13.69 76.31 -14.3 75.39 -14.71C74.47 -15.12 73.47 -15.32 72.38 -15.32C70.91 -15.32 69.6 -15 68.43 -14.35C67.27 -13.7 66.35 -12.79 65.7 -11.63C65.04 -10.46 64.71 -9.12 64.71 -7.59C64.71 -6.06 65.04 -4.71 65.7 -3.54C66.35 -2.36 67.27 -1.45 68.43 -0.8C69.6 -0.15 70.91 0.17 72.38 0.17C73.51 0.17 74.54 -0.05 75.48 -0.49C76.41 -0.93 77.19 -1.57 77.8 -2.41L77.8 0L80.43 0ZM75.22 -2.91C74.44 -2.46 73.57 -2.23 72.61 -2.23C71.64 -2.23 70.77 -2.46 69.99 -2.91C69.22 -3.36 68.61 -3.99 68.16 -4.8C67.71 -5.61 67.49 -6.54 67.49 -7.59C67.49 -8.64 67.71 -9.57 68.16 -10.38C68.61 -11.19 69.22 -11.82 69.99 -12.26C70.77 -12.7 71.64 -12.92 72.61 -12.92C73.57 -12.92 74.44 -12.7 75.22 -12.26C76 -11.82 76.61 -11.19 77.05 -10.38C77.49 -9.57 77.71 -8.64 77.71 -7.59C77.71 -6.54 77.49 -5.61 77.05 -4.8C76.61 -3.99 76 -3.36 75.22 -2.91Z M103.14 -14.35C101.98 -15 100.66 -15.32 99.19 -15.32C98.1 -15.32 97.1 -15.12 96.18 -14.71C95.27 -14.3 94.5 -13.69 93.89 -12.89L93.89 -21.25L91.14 -21.25L91.14 0L93.78 0L93.78 -2.41C94.39 -1.57 95.16 -0.93 96.1 -0.49C97.03 -0.05 98.06 0.17 99.19 0.17C100.66 0.17 101.98 -0.15 103.14 -0.8C104.31 -1.45 105.22 -2.36 105.88 -3.54C106.54 -4.71 106.87 -6.06 106.87 -7.59C106.87 -9.12 106.54 -10.46 105.88 -11.63C105.22 -12.79 104.31 -13.7 103.14 -14.35ZM101.58 -2.91C100.81 -2.46 99.93 -2.23 98.96 -2.23C98.01 -2.23 97.14 -2.46 96.35 -2.91C95.57 -3.36 94.96 -3.99 94.52 -4.8C94.08 -5.61 93.86 -6.54 93.86 -7.59C93.86 -8.64 94.08 -9.57 94.52 -10.38C94.96 -11.19 95.57 -11.82 96.35 -12.26C97.14 -12.7 98.01 -12.92 98.96 -12.92C99.93 -12.92 100.81 -12.7 101.58 -12.26C102.35 -11.82 102.97 -11.19 103.41 -10.38C103.86 -9.57 104.09 -8.64 104.09 -7.59C104.09 -6.54 103.86 -5.61 103.41 -4.8C102.97 -3.99 102.35 -3.36 101.58 -2.91Z M118.61 -0.83C119.81 -0.16 121.16 0.17 122.67 0.17C124.18 0.17 125.53 -0.16 126.73 -0.83C127.92 -1.5 128.86 -2.42 129.53 -3.59C130.21 -4.77 130.55 -6.1 130.55 -7.59C130.55 -9.08 130.21 -10.41 129.53 -11.59C128.86 -12.76 127.92 -13.68 126.73 -14.34C125.53 -14.99 124.18 -15.32 122.67 -15.32C121.16 -15.32 119.81 -14.99 118.61 -14.34C117.4 -13.68 116.46 -12.76 115.78 -11.59C115.11 -10.41 114.77 -9.08 114.77 -7.59C114.77 -6.1 115.11 -4.77 115.78 -3.59C116.46 -2.42 117.4 -1.5 118.61 -0.83ZM125.29 -2.91C124.52 -2.46 123.65 -2.23 122.67 -2.23C121.7 -2.23 120.83 -2.46 120.05 -2.91C119.28 -3.36 118.67 -3.99 118.22 -4.8C117.77 -5.61 117.55 -6.54 117.55 -7.59C117.55 -8.64 117.77 -9.57 118.22 -10.38C118.67 -11.19 119.28 -11.82 120.05 -12.26C120.83 -12.7 121.7 -12.92 122.67 -12.92C123.65 -12.92 124.52 -12.7 125.29 -12.26C126.07 -11.82 126.67 -11.19 127.11 -10.38C127.55 -9.57 127.77 -8.64 127.77 -7.59C127.77 -6.54 127.55 -5.61 127.11 -4.8C126.67 -3.99 126.07 -3.36 125.29 -2.91Z M142.29 -0.83C143.49 -0.16 144.85 0.17 146.36 0.17C147.87 0.17 149.22 -0.16 150.41 -0.83C151.6 -1.5 152.54 -2.42 153.22 -3.59C153.89 -4.77 154.23 -6.1 154.23 -7.59C154.23 -9.08 153.89 -10.41 153.22 -11.59C152.54 -12.76 151.6 -13.68 150.41 -14.34C149.22 -14.99 147.87 -15.32 146.36 -15.32C144.85 -15.32 143.49 -14.99 142.29 -14.34C141.09 -13.68 140.15 -12.76 139.47 -11.59C138.79 -10.41 138.45 -9.08 138.45 -7.59C138.45 -6.1 138.79 -4.77 139.47 -3.59C140.15 -2.42 141.09 -1.5 142.29 -0.83ZM148.98 -2.91C148.2 -2.46 147.33 -2.23 146.36 -2.23C145.38 -2.23 144.51 -2.46 143.74 -2.91C142.96 -3.36 142.35 -3.99 141.9 -4.8C141.45 -5.61 141.23 -6.54 141.23 -7.59C141.23 -8.64 141.45 -9.57 141.9 -10.38C142.35 -11.19 142.96 -11.82 143.74 -12.26C144.51 -12.7 145.38 -12.92 146.36 -12.92C147.33 -12.92 148.2 -12.7 148.98 -12.26C149.75 -11.82 150.36 -11.19 150.8 -10.38C151.24 -9.57 151.46 -8.64 151.46 -7.59C151.46 -6.54 151.24 -5.61 150.8 -4.8C150.36 -3.99 149.75 -3.36 148.98 -2.91Z M169.44 -7.07L175.14 0L178.52 0L171.5 -8.91L177.89 -15.18L174.57 -15.18L166.29 -7.62L166.29 -21.25L163.54 -21.25L163.54 0L166.29 0L166.29 -4.15Z"></path></g><g id="SvgjsG65280" class="XDR9JVxla" transform="translate(-16.360992761201736, 97.20394796839483) scale(1.4064293614030559)" light-content="false" non-strokable="false" fill="#1c4f9c"><path d="M86.677 6.686A5.731 5.731 0 0 0 82.61 5h-9.591c-1.061 0-1.918.86-1.918 1.918v3.836c0 1.06.858 1.918 1.918 1.918h7.673v14.87c0 4.624-2.973 8.557-5.376 12.272-3.778 5.841-12.324 5.841-16.103.002-2.486-3.84-5.376-7.484-5.376-12.274v-14.87h7.673a1.916 1.916 0 0 0 1.918-1.918V6.918A1.919 1.919 0 0 0 61.509 5h-9.591c-1.589 0-3.027.645-4.069 1.686s-1.686 2.48-1.686 4.069v12.824c0 6.654 2.016 12.847 5.414 18.568 6.055 10.191 11.851 13.626 11.691 19.164-.105 3.552 0 7.113 0 10.67 0 8.46-6.886 15.346-15.346 15.346h-3.678c-8.461 0-15.346-6.886-15.346-15.346V58.146c5.545-1.65 9.591-6.779 9.591-12.863 0-7.415-6.013-13.428-13.428-13.428-7.417 0-13.428 6.013-13.428 13.428 0 6.084 4.044 11.213 9.591 12.863V71.98C21.227 84.693 31.531 95 44.245 95h3.678c12.711 0 23.019-10.307 23.019-23.019v-6.208c0-2.93-.081-8.341 1.199-10.979 4.264-3.412 9.111-6.963 11.668-12.148 3.615-5.586 4.556-12.413 4.556-19.066V10.755a5.737 5.737 0 0 0-1.688-4.069M17.87 45.283c0-3.964 3.228-7.193 7.193-7.193 3.964 0 7.193 3.229 7.193 7.193 0 3.966-3.229 7.193-7.193 7.193-3.966.001-7.193-3.227-7.193-7.193"></path></g></g></svg>